<svg xmlns="http://www.w3.org/2000/svg" viewBox="0 0 109.8 72.81"><defs><style>.cls-1{fill:#13356d;}</style></defs><g id="Capa_2" data-name="Capa 2"><g id="menu_PRINCIPAL" data-name="menu PRINCIPAL"><rect class="cls-1" x="24.97" y="0.08" width="3.65" height="30.02"/><path class="cls-1" d="M42.32,30.46c-6.22,0-10.95-4.46-10.95-11.52S36.26,7.5,42.48,7.5s11.11,4.42,11.11,11.44-5,11.52-11.27,11.52m0-3.24c3.81,0,7.54-2.64,7.54-8.28s-3.65-8.24-7.42-8.24-7.34,2.64-7.34,8.24,3.41,8.28,7.22,8.28"/><path class="cls-1" d="M67.56,7.5c-3,0-6,1-7.4,2.83V0H56.42V30h3.74V27.69c1.41,1.78,4.32,2.77,7.24,2.77,6.26,0,11.27-4.46,11.27-11.52S73.82,7.5,67.56,7.5Zm-.37,19.72c-3.81,0-7.22-2.64-7.22-8.28s3.49-8.24,7.34-8.24,7.42,2.64,7.42,8.24S71,27.22,67.19,27.22Z"/><rect class="cls-1" x="106.15" y="0.08" width="3.65" height="30.02"/><path class="cls-1" d="M31.79,61.68c-6.47,0-11.24-4.62-11.24-11.92s4.61-11.83,11.24-11.83,10.92,4.7,10.92,11a21.74,21.74,0,0,1-.13,2.31H24.41c.29,4.66,3.53,7.22,7.38,7.22,3.41,0,5.56-1.76,6.39-4.24h4.07c-1.16,4.2-4.81,7.47-10.46,7.47M24.45,48.13H38.81c0-4.49-3.28-7-7.18-7-3.69,0-6.76,2.48-7.18,7"/><path class="cls-1" d="M10.09,55.49V41.15h0l2.33-3.56a14.85,14.85,0,0,1-2.33.3h0V32.76H6.34v5.15H.26v3.28H6.34v14.3c0,4.61,2.1,6.29,6.12,6.29H19V58.5H13.09C10.76,58.5,10.09,57.75,10.09,55.49Z"/><path class="cls-1" d="M19,8.42v1.83A11,11,0,0,0,11.3,7.41C5.08,7.41.17,11.83.17,18.85S4.89,30.37,11.11,30.37a11.28,11.28,0,0,0,7.79-2.95l0,.84c0,3.86-1.5,6.58-3.83,8.12L12.21,41c6.17-1,10.51-5.86,10.51-12.62V8.42ZM11.1,27.12c-3.81,0-7.22-2.63-7.22-8.27s3.49-8.24,7.34-8.24,7.42,2.64,7.42,8.24S14.91,27.12,11.1,27.12Z"/><path class="cls-1" d="M87.79,43.18l2.14-3.29a9.43,9.43,0,0,0-6.13-2,8.76,8.76,0,0,0-7.26,3.74V38.38H72.33V61.31h4.21V48.62c0-4.95,2.64-7.43,6.5-7.43A5.94,5.94,0,0,1,87.79,43.18Z"/><path class="cls-1" d="M100.42,37.87A8.55,8.55,0,0,0,92.25,43a9.19,9.19,0,0,0-1.13-1.88l-2.47,3.66a9.3,9.3,0,0,1,.53,3.51v13h4.21V48.62c0-4.95,2.8-7.43,6.66-7.43s6.45,2.39,6.45,7.09v13h3.27V47.74C109.77,41.15,105.66,37.87,100.42,37.87Z"/><path class="cls-1" d="M100,8.42v1.75C98.54,8.45,95.27,7.5,92.37,7.5c-6.21,0-11.17,4.42-11.17,11.44s4.83,11.52,11,11.52c2.94,0,6.3-1,7.71-2.76V30h3.27V8.42Zm-7.87,18.8c-3.81,0-7.21-2.64-7.21-8.28s3.48-8.24,7.33-8.24,7.43,2.64,7.43,8.24S95.89,27.22,92.08,27.22Z"/><path class="cls-1" d="M65.31,38.38v2.16c-1.4-1.73-4.72-2.69-7.68-2.69-6.43,0-11.52,4.58-11.52,11.84s4.94,11.92,11.37,11.92c3,0,6.43-1,7.83-2.78v2.48h4.21V38.38ZM57.47,58.26c-3.94,0-7.5-2.73-7.5-8.57s3.65-8.52,7.64-8.52A7.47,7.47,0,0,1,65.31,49v1.33A7.57,7.57,0,0,1,57.47,58.26Z"/><polygon class="cls-1" points="3.48 70.29 0.71 70.29 0.71 72.75 0 72.75 0 67.32 0.71 67.32 0.71 69.7 3.48 69.7 3.48 67.32 4.19 67.32 4.19 72.75 3.48 72.75 3.48 70.29"/><path class="cls-1" d="M10.5,72.81A2.78,2.78,0,1,1,13.23,70,2.68,2.68,0,0,1,10.5,72.81Zm0-.62A2.17,2.17,0,1,0,8.5,70,2,2,0,0,0,10.5,72.19Z"/><polygon class="cls-1" points="17.52 67.32 17.52 72.18 19.42 72.18 19.42 72.75 16.81 72.75 16.81 67.32 17.52 67.32"/><path class="cls-1" d="M27.4,70.05a2.58,2.58,0,0,1-2.88,2.7H22.83V67.32h1.69A2.6,2.6,0,0,1,27.4,70.05Zm-2.88,2.12a1.94,1.94,0,0,0,2.16-2.12,2,2,0,0,0-2.16-2.16h-1v4.28Z"/><rect class="cls-1" x="30.99" y="67.32" width="0.71" height="5.44"/><polygon class="cls-1" points="39.82 67.31 39.82 72.75 39.11 72.75 36.26 68.42 36.26 72.75 35.55 72.75 35.55 67.31 36.26 67.31 39.11 71.63 39.11 67.31 39.82 67.31"/><path class="cls-1" d="M48.65,68.89H47.8a1.75,1.75,0,0,0-1.66-1,2.14,2.14,0,0,0,0,4.27,1.83,1.83,0,0,0,1.91-1.76H45.89v-.58h2.92v.55a2.63,2.63,0,0,1-2.67,2.43,2.78,2.78,0,0,1,0-5.55A2.59,2.59,0,0,1,48.65,68.89Z"/><path class="cls-1" d="M59.15,72.75h-2V67.32h2c1.15,0,1.72.62,1.72,1.38A1.27,1.27,0,0,1,59.84,70a1.36,1.36,0,0,1,1.08,1.34C60.92,72.11,60.27,72.75,59.15,72.75ZM59,67.9H57.83v1.76H59c.67,0,1-.32,1-.88S59.7,67.9,59,67.9Zm.05,2.35H57.83v1.92h1.25c.71,0,1.13-.35,1.13-1S59.76,70.25,59.06,70.25Z"/><path class="cls-1" d="M64.53,67.32h.71v3.44a1.34,1.34,0,1,0,2.68,0V67.32h.71v3.43a2.05,2.05,0,1,1-4.1,0Z"/><path class="cls-1" d="M74.18,72.81c-1.09,0-1.86-.61-1.88-1.51h.76a1,1,0,0,0,1.12.91c.69,0,1.09-.39,1.09-.91,0-1.46-2.94-.53-2.94-2.55,0-.9.73-1.5,1.8-1.5a1.62,1.62,0,0,1,1.8,1.39h-.78a1,1,0,0,0-1.05-.79c-.58,0-1,.29-1,.88,0,1.4,2.93.53,2.93,2.54A1.63,1.63,0,0,1,74.18,72.81Z"/><rect class="cls-1" x="79.68" y="67.32" width="0.71" height="5.44"/><polygon class="cls-1" points="88.52 67.31 88.52 72.75 87.81 72.75 84.95 68.42 84.95 72.75 84.24 72.75 84.24 67.31 84.95 67.31 87.81 71.63 87.81 67.31 88.52 67.31"/><polygon class="cls-1" points="95.3 67.89 93.08 67.89 93.08 69.71 95.06 69.71 95.06 70.3 93.08 70.3 93.08 72.17 95.3 72.17 95.3 72.75 92.37 72.75 92.37 67.31 95.3 67.31 95.3 67.89"/><path class="cls-1" d="M100.74,72.81c-1.09,0-1.86-.61-1.88-1.51h.76a1,1,0,0,0,1.12.91c.69,0,1.09-.39,1.09-.91,0-1.46-2.94-.53-2.94-2.55,0-.9.73-1.5,1.8-1.5a1.64,1.64,0,0,1,1.81,1.39h-.78a1,1,0,0,0-1.06-.79c-.58,0-1,.29-1,.88,0,1.4,2.93.53,2.93,2.54A1.63,1.63,0,0,1,100.74,72.81Z"/><path class="cls-1" d="M108,72.81c-1.1,0-1.87-.61-1.88-1.51h.75a1,1,0,0,0,1.13.91c.68,0,1.09-.39,1.09-.91,0-1.46-2.94-.53-2.94-2.55,0-.9.72-1.5,1.8-1.5a1.63,1.63,0,0,1,1.8,1.39h-.78a1,1,0,0,0-1-.79c-.59,0-1,.29-1,.88,0,1.4,2.94.53,2.94,2.54A1.64,1.64,0,0,1,108,72.81Z"/></g></g></svg>